<svg width="484" height="57" viewBox="0 0 484 57" fill="none" xmlns="http://www.w3.org/2000/svg">
<path d="M35.78 27.42L17.3 38.2L35.78 48.91V56.05L4.84 38.2L35.78 20.28V27.42ZM45.111 4.39H78.711V10.9H65.131V55H58.341V10.9H45.111V4.39ZM92.8053 55.7C89.492 55.7 86.6453 55.0467 84.2653 53.74C81.8853 52.3867 80.042 50.5667 78.7353 48.28C77.4753 45.9467 76.8453 43.2867 76.8453 40.3C76.8453 37.4533 77.5686 34.8633 79.0153 32.53C80.462 30.1967 82.3986 28.33 84.8253 26.93C87.252 25.53 89.9586 24.83 92.9453 24.83C96.772 24.83 99.9453 25.95 102.465 28.19C104.985 30.43 106.689 33.51 107.575 37.43L83.7053 45.83L82.1653 41.98L101.765 34.84L100.365 35.75C99.8053 34.21 98.872 32.88 97.5653 31.76C96.2586 30.5933 94.5553 30.01 92.4553 30.01C90.682 30.01 89.0953 30.4533 87.6953 31.34C86.2953 32.18 85.1986 33.3467 84.4053 34.84C83.612 36.3333 83.2153 38.0367 83.2153 39.95C83.2153 41.9567 83.6353 43.73 84.4753 45.27C85.3153 46.7633 86.4586 47.9533 87.9053 48.84C89.3986 49.68 91.0786 50.1 92.9453 50.1C94.2053 50.1 95.4186 49.8667 96.5853 49.4C97.7986 48.9333 98.9186 48.3267 99.9453 47.58L102.955 52.41C101.509 53.39 99.8753 54.1833 98.0553 54.79C96.282 55.3967 94.532 55.7 92.8053 55.7ZM120.543 26.02L121.173 34.42L120.823 33.3C121.569 31.5267 122.643 30.0333 124.043 28.82C125.489 27.56 126.983 26.6033 128.523 25.95C130.109 25.25 131.486 24.9 132.653 24.9L132.303 31.34C130.109 31.2 128.173 31.62 126.493 32.6C124.859 33.58 123.553 34.8867 122.573 36.52C121.639 38.1533 121.173 39.9033 121.173 41.77V55H114.733V26.02H120.543ZM145.861 26.02L146.421 33.09L146.141 31.97C147.074 29.8233 148.591 28.12 150.691 26.86C152.791 25.5533 155.218 24.9 157.971 24.9C160.724 24.9 162.964 25.7167 164.691 27.35C166.464 28.9367 167.374 31.0133 167.421 33.58V55H160.841V35.89C160.794 34.3033 160.328 33.02 159.441 32.04C158.601 31.0133 157.271 30.5 155.451 30.5C153.771 30.5 152.254 30.9667 150.901 31.9C149.548 32.8333 148.474 34.1167 147.681 35.75C146.934 37.3833 146.561 39.2733 146.561 41.42V55H140.051V26.02H145.861ZM189.782 55.7C187.076 55.7 184.602 55.1167 182.362 53.95C180.169 52.7833 178.419 51.08 177.112 48.84C175.852 46.5533 175.222 43.7767 175.222 40.51C175.222 37.29 175.899 34.5133 177.252 32.18C178.606 29.8 180.402 27.98 182.642 26.72C184.929 25.46 187.426 24.83 190.132 24.83C192.839 24.83 195.126 25.46 196.992 26.72C198.859 27.9333 200.282 29.38 201.262 31.06L200.842 32.18L201.472 26.02H207.492V55H200.982V47.44L201.682 49.12C201.496 49.5867 201.076 50.1933 200.422 50.94C199.816 51.64 198.976 52.3633 197.902 53.11C196.876 53.8567 195.686 54.4867 194.332 55C192.979 55.4667 191.462 55.7 189.782 55.7ZM191.532 50.31C193.166 50.31 194.636 50.0067 195.942 49.4C197.249 48.7933 198.322 47.9533 199.162 46.88C200.049 45.76 200.656 44.43 200.982 42.89V37.22C200.609 35.82 199.956 34.6067 199.022 33.58C198.089 32.5067 196.969 31.69 195.662 31.13C194.356 30.5233 192.909 30.22 191.322 30.22C189.596 30.22 188.009 30.64 186.562 31.48C185.116 32.32 183.949 33.4867 183.062 34.98C182.222 36.4733 181.802 38.2233 181.802 40.23C181.802 42.0967 182.246 43.8 183.132 45.34C184.019 46.88 185.209 48.0933 186.702 48.98C188.196 49.8667 189.806 50.31 191.532 50.31ZM217.758 55V0.819997H224.268V55H217.758ZM231.268 35.75L244.568 55H236.938L226.928 39.39L231.268 35.75ZM222.238 45.76L221.608 39.53L239.178 25.39L243.168 28.82L222.238 45.76ZM248.331 51.29C248.331 50.2633 248.705 49.4 249.451 48.7C250.245 47.9533 251.108 47.58 252.041 47.58C252.881 47.58 253.675 47.9533 254.421 48.7C255.215 49.4 255.611 50.2633 255.611 51.29C255.611 52.41 255.215 53.32 254.421 54.02C253.675 54.6733 252.881 55 252.041 55C251.108 55 250.245 54.6733 249.451 54.02C248.705 53.32 248.331 52.41 248.331 51.29Z" fill="white" fill-opacity="0.8"/>
<path d="M270.849 24.76L270.639 27.28L271.549 26.02L292.269 4.39H301.019L280.089 26.09L302.209 55H293.599L275.119 30.43L270.849 34.56V55H263.989V4.39H270.849V24.76ZM305.685 40.23C305.685 37.3367 306.362 34.7233 307.715 32.39C309.115 30.0567 311.028 28.2133 313.455 26.86C315.882 25.5067 318.635 24.83 321.715 24.83C324.888 24.83 327.665 25.5067 330.045 26.86C332.425 28.2133 334.268 30.0567 335.575 32.39C336.882 34.7233 337.535 37.3367 337.535 40.23C337.535 43.1233 336.882 45.76 335.575 48.14C334.268 50.4733 332.402 52.3167 329.975 53.67C327.595 55.0233 324.818 55.7 321.645 55.7C318.565 55.7 315.812 55.07 313.385 53.81C311.005 52.5033 309.115 50.7067 307.715 48.42C306.362 46.0867 305.685 43.3567 305.685 40.23ZM312.195 40.3C312.195 42.1667 312.615 43.87 313.455 45.41C314.295 46.9033 315.415 48.0933 316.815 48.98C318.262 49.8667 319.848 50.31 321.575 50.31C323.395 50.31 325.005 49.8667 326.405 48.98C327.852 48.0933 328.972 46.9033 329.765 45.41C330.558 43.87 330.955 42.1667 330.955 40.3C330.955 38.4333 330.558 36.7533 329.765 35.26C328.972 33.72 327.852 32.5067 326.405 31.62C325.005 30.6867 323.395 30.22 321.575 30.22C319.802 30.22 318.192 30.6867 316.745 31.62C315.345 32.5533 314.225 33.79 313.385 35.33C312.592 36.8233 312.195 38.48 312.195 40.3ZM357.11 55.7C354.45 55.7 352.023 55.07 349.83 53.81C347.683 52.5033 345.98 50.6833 344.72 48.35C343.46 45.97 342.83 43.24 342.83 40.16C342.83 36.94 343.483 34.1867 344.79 31.9C346.143 29.6133 347.963 27.8633 350.25 26.65C352.536 25.4367 355.103 24.83 357.95 24.83C360.236 24.83 362.406 25.32 364.46 26.3C366.56 27.28 368.193 28.6333 369.36 30.36L369.08 32.67V0.819997H375.52V55H369.01V47.79L369.71 49.61C368.356 51.3833 366.606 52.8533 364.46 54.02C362.313 55.14 359.863 55.7 357.11 55.7ZM359.14 50.17C360.866 50.17 362.406 49.8667 363.76 49.26C365.113 48.6067 366.233 47.72 367.12 46.6C368.006 45.48 368.636 44.15 369.01 42.61V37.15C368.636 35.75 367.96 34.5367 366.98 33.51C366.046 32.4367 364.903 31.5967 363.55 30.99C362.243 30.3367 360.773 30.01 359.14 30.01C357.366 30.01 355.733 30.4533 354.24 31.34C352.793 32.18 351.626 33.3467 350.74 34.84C349.853 36.3333 349.41 38.06 349.41 40.02C349.41 41.9333 349.853 43.66 350.74 45.2C351.626 46.6933 352.816 47.9067 354.31 48.84C355.803 49.7267 357.413 50.17 359.14 50.17ZM399.284 55.7C395.97 55.7 393.124 55.0467 390.744 53.74C388.364 52.3867 386.52 50.5667 385.214 48.28C383.954 45.9467 383.324 43.2867 383.324 40.3C383.324 37.4533 384.047 34.8633 385.494 32.53C386.94 30.1967 388.877 28.33 391.304 26.93C393.73 25.53 396.437 24.83 399.424 24.83C403.25 24.83 406.424 25.95 408.944 28.19C411.464 30.43 413.167 33.51 414.054 37.43L390.184 45.83L388.644 41.98L408.244 34.84L406.844 35.75C406.284 34.21 405.35 32.88 404.044 31.76C402.737 30.5933 401.034 30.01 398.934 30.01C397.16 30.01 395.574 30.4533 394.174 31.34C392.774 32.18 391.677 33.3467 390.884 34.84C390.09 36.3333 389.694 38.0367 389.694 39.95C389.694 41.9567 390.114 43.73 390.954 45.27C391.794 46.7633 392.937 47.9533 394.384 48.84C395.877 49.68 397.557 50.1 399.424 50.1C400.684 50.1 401.897 49.8667 403.064 49.4C404.277 48.9333 405.397 48.3267 406.424 47.58L409.434 52.41C407.987 53.39 406.354 54.1833 404.534 54.79C402.76 55.3967 401.01 55.7 399.284 55.7ZM442.351 2.85C439.084 11.7633 435.818 20.6767 432.551 29.59C429.284 38.5033 425.994 47.4167 422.681 56.33H416.731C420.044 47.4167 423.334 38.5033 426.601 29.59C429.868 20.6767 433.158 11.7633 436.471 2.85H442.351ZM447.916 48.91L466.396 38.13L447.916 27.35V20.28L478.926 38.13L447.916 56.05V48.91Z" fill="white"/>
</svg>
